<?xml version="1.0"?>
<svg xmlns="http://www.w3.org/2000/svg" xmlns:xlink="http://www.w3.org/1999/xlink" version="1.1" id="Capa_1" x="0px" y="0px" viewBox="0 0 511.999 511.999" style="enable-background:new 0 0 511.999 511.999;" xml:space="preserve" width="512px" height="512px"><g><g>
	<g>
		<path d="M504.396,346.58c-78.442,0-149.924-43.091-186.548-112.456l-2.233-4.23c-2.891-5.474-5.963-10.811-9.201-16.01    c4.265-0.867,8.336-2.864,11.768-5.967c1.379,1.267,3.176,1.993,5.059,2.013c0.027,0,0.055,0,0.082,0    c1.987,0,3.896-0.779,5.319-2.17l13.657-13.365c13.188-12.905,13.418-34.135,0.513-47.324l-13.938-14.243    c3.414-1.225,6.625-3.178,9.381-5.876c10.255-10.035,10.434-26.544,0.398-36.799c-10.035-10.255-26.544-10.434-36.799-0.398    c-2.758,2.698-4.779,5.866-6.077,9.252L277.19,80.013c-2.937-3.002-7.752-3.054-10.753-0.117l-27.755,27.16l-5.676-3.746    l3.736-12.996c2.47-8.591,1.446-17.63-2.882-25.451s-11.443-13.488-20.034-15.958l-19.136-5.501    c2.399-2.797,4.193-6.098,5.242-9.745c1.92-6.68,1.124-13.708-2.242-19.791c-3.365-6.082-8.898-10.488-15.578-12.409    c-6.68-1.921-13.708-1.125-19.791,2.242c-6.082,3.365-10.488,8.898-12.409,15.578c-1.048,3.647-1.282,7.398-0.734,11.042    l-25.526-7.338c-4.037-1.162-8.249,1.171-9.409,5.207L101.82,71.41c-0.558,1.938-0.321,4.018,0.655,5.783    c0.731,1.321,1.834,2.385,3.155,3.07c-1.125,4.479-1,9.092,0.333,13.426c-5.711-0.38-11.461-0.577-17.242-0.577H7.604    C3.405,93.111,0,96.516,0,100.715L0.003,503.96c0,4.199,3.405,7.604,7.604,7.604s7.604-3.405,7.604-7.604V138.738H45.1v49.37    c0,4.199,3.405,7.604,7.604,7.604s7.604-3.405,7.604-7.604v-49.37h28.411c0.497,0,0.992,0.009,1.487,0.013V503.96    c0,4.199,3.405,7.604,7.604,7.604s7.604-3.405,7.604-7.604V139.399c10.141,0.797,20.129,2.308,29.899,4.508V503.96    c0,4.199,3.405,7.604,7.604,7.604c4.199,0,7.604-3.405,7.604-7.604V147.94c10.285,3.139,20.276,7.051,29.899,11.689V503.96    c0,4.199,3.405,7.604,7.604,7.604c4.199,0,7.604-3.405,7.604-7.604V167.744c10.55,6.199,20.556,13.316,29.899,21.282V503.96    c0,4.199,3.405,7.604,7.604,7.604s7.604-3.405,7.604-7.604V203.358c11.342,11.807,21.398,25.032,29.889,39.51v171.826    c0,4.199,3.405,7.604,7.604,7.604s7.604-3.405,7.604-7.604V270.023c8.761,14.271,18.789,27.502,29.899,39.576V503.96    c0,4.199,3.405,7.604,7.604,7.604s7.604-3.405,7.604-7.604V324.795c9.388,8.623,19.384,16.511,29.899,23.609V503.96    c0,4.199,3.405,7.604,7.604,7.604s7.604-3.405,7.604-7.604V357.906c9.622,5.555,19.607,10.483,29.899,14.751V503.96    c0,4.199,3.405,7.604,7.604,7.604s7.604-3.405,7.604-7.604V378.398c9.748,3.334,19.73,6.091,29.899,8.24V503.96    c0,4.199,3.405,7.604,7.604,7.604c4.199,0,7.604-3.405,7.604-7.604V389.373c10.039,1.497,20.231,2.41,30.533,2.711V503.96    c0,4.199,3.405,7.604,7.604,7.604s7.604-3.405,7.604-7.604V384.599v-0.011v-30.405C512,349.983,508.595,346.58,504.396,346.58z     M294.545,196.449c-0.634-0.852-1.276-1.696-1.919-2.54c-1.82-3.476-1.432-7.806,1.149-10.906l13.755,14.056    C303.698,200.11,298.129,199.887,294.545,196.449z M312.491,100.626c2.101-2.055,4.832-3.08,7.562-3.08    c2.809,0,5.616,1.084,7.731,3.245c4.171,4.262,4.097,11.123-0.165,15.294c-4.26,4.168-11.116,4.096-15.288-0.16l-0.01-0.011    C308.155,111.652,308.23,104.795,312.491,100.626z M271.638,96.085l29.805,30.458c0.004,0.004,0.008,0.009,0.012,0.013    c0.004,0.004,0.008,0.008,0.012,0.012l30.474,31.142c7.04,7.195,6.915,18.778-0.28,25.818l-8.222,8.046L250.366,116.9    L271.638,96.085z M283.134,172.13c-1.604,1.701-2.925,3.571-3.963,5.556c-5.331-5.916-10.913-11.568-16.736-16.93    c2.048-1.003,3.979-2.309,5.748-3.904L283.134,172.13z M243.791,131.925l13.754,14.055c-3.913,3.116-9.645,2.826-13.217-0.824    c-1.848-1.888-2.85-4.382-2.822-7.021C241.532,135.837,242.336,133.668,243.791,131.925z M232.8,121.397    c-3.079,3.389-5.136,7.487-6.014,11.919c-4.126-2.634-8.326-5.153-12.596-7.546c3.615-2.849,6.477-6.706,8.102-11.31    L232.8,121.397z M164.526,23.483c1.362-4.737,5.698-7.828,10.398-7.828c0.986,0,1.989,0.137,2.983,0.423    c5.731,1.648,9.054,7.651,7.406,13.381c-1.648,5.731-7.651,9.053-13.381,7.406C166.201,35.218,162.879,29.215,164.526,23.483z     M126.757,39.702l82.865,23.821c9.675,2.782,15.284,12.916,12.503,22.591l-3.178,11.057L118.535,68.306L126.757,39.702z     M207.818,109.796c-0.844,2.107-2.371,3.846-4.382,4.958c-2.309,1.277-4.98,1.581-7.519,0.85    c-2.536-0.729-4.637-2.403-5.916-4.712c-1.114-2.013-1.486-4.297-1.083-6.528L207.818,109.796z M173.586,107.477    c-7.532-2.632-15.206-4.919-23-6.846c1.342-1.943,2.407-4.083,3.166-6.378l20.525,5.9    C173.683,102.578,173.454,105.04,173.586,107.477z M139.133,90.051c-0.844,2.106-2.371,3.844-4.384,4.956    c-2.311,1.279-4.98,1.581-7.517,0.852c-2.539-0.73-4.641-2.404-5.919-4.712c-1.113-2.011-1.484-4.296-1.08-6.528L139.133,90.051z     M496.792,376.877c-86.747-2.699-165.123-51.434-205.842-128.554l-2.233-4.23C249.451,169.727,172.817,123.529,88.72,123.529    H15.208v-15.208H88.72c89.752,0,171.54,49.304,213.446,128.671l2.232,4.23c38.08,72.121,111.301,117.748,192.393,120.439V376.877z    " data-original="#000000" class="active-path" data-old_color="#000000" fill="#fff"/>
	</g>
</g><g>
	<g>
		<path d="M86.82,29.586l-56.266-7.604c-4.162-0.559-7.991,2.356-8.554,6.517c-0.562,4.163,2.355,7.992,6.517,8.555l56.266,7.604    c0.346,0.047,0.688,0.069,1.028,0.069c3.747,0,7.011-2.771,7.526-6.587C93.9,33.978,90.982,30.148,86.82,29.586z" data-original="#000000" class="active-path" data-old_color="#000000" fill="#fff"/>
	</g>
</g><g>
	<g>
		<path d="M86.82,56.139l-56.266-7.604c-4.162-0.561-7.991,2.356-8.554,6.517c-0.562,4.163,2.355,7.992,6.517,8.555l56.266,7.604    c0.346,0.047,0.688,0.069,1.028,0.069c3.747,0,7.011-2.771,7.526-6.587C93.9,60.531,90.982,56.701,86.82,56.139z" data-original="#000000" class="active-path" data-old_color="#000000" fill="#fff"/>
	</g>
</g><g>
	<g>
		<path d="M52.705,210.922c-4.199,0-7.604,3.405-7.604,7.604V503.96c0,4.199,3.405,7.604,7.604,7.604s7.604-3.405,7.604-7.604    V218.526C60.309,214.326,56.904,210.922,52.705,210.922z" data-original="#000000" class="active-path" data-old_color="#000000" fill="#fff"/>
	</g>
</g><g>
	<g>
		<path d="M278.228,437.509c-4.199,0-7.604,3.405-7.604,7.604v58.848c0,4.199,3.405,7.604,7.604,7.604s7.604-3.405,7.604-7.604    v-58.848C285.832,440.912,282.427,437.509,278.228,437.509z" data-original="#000000" class="active-path" data-old_color="#000000" fill="#fff"/>
	</g>
</g></g> </svg>
